<svg xmlns="http://www.w3.org/2000/svg" viewBox="0 0 720 560" role="img" aria-labelledby="title desc">
  <title id="title">Ilustracion heroica Bruma Alta</title>
  <desc id="desc">Paisaje andino con empaques de cafe, una taza y elementos botanicos.</desc>
  <defs>
    <linearGradient id="sky" x1="0%" y1="0%" x2="100%" y2="100%">
      <stop offset="0%" stop-color="#f8f0e2"/>
      <stop offset="45%" stop-color="#f2d6b3"/>
      <stop offset="100%" stop-color="#d5e0cb"/>
    </linearGradient>
    <linearGradient id="hillA" x1="0%" y1="0%" x2="100%" y2="0%">
      <stop offset="0%" stop-color="#6d8a70"/>
      <stop offset="100%" stop-color="#3f5b49"/>
    </linearGradient>
    <linearGradient id="hillB" x1="0%" y1="0%" x2="100%" y2="0%">
      <stop offset="0%" stop-color="#8aa180"/>
      <stop offset="100%" stop-color="#5b765c"/>
    </linearGradient>
    <linearGradient id="bagA" x1="0%" y1="0%" x2="0%" y2="100%">
      <stop offset="0%" stop-color="#efe2cf"/>
      <stop offset="100%" stop-color="#d6bea2"/>
    </linearGradient>
    <linearGradient id="bagB" x1="0%" y1="0%" x2="0%" y2="100%">
      <stop offset="0%" stop-color="#29453a"/>
      <stop offset="100%" stop-color="#163128"/>
    </linearGradient>
    <linearGradient id="bagC" x1="0%" y1="0%" x2="0%" y2="100%">
      <stop offset="0%" stop-color="#d88653"/>
      <stop offset="100%" stop-color="#a7542b"/>
    </linearGradient>
  </defs>
  <rect width="720" height="560" rx="48" fill="url(#sky)"/>
  <circle cx="560" cy="118" r="72" fill="#f4b26b" opacity="0.9"/>
  <path d="M0 280c104-90 214-123 330-101 84 15 152 52 208 111 57 61 118 95 182 102v168H0z" fill="url(#hillA)"/>
  <path d="M0 334c132-54 251-58 359-11 58 25 113 65 164 119 44 47 110 73 197 80v38H0z" fill="url(#hillB)"/>
  <path d="M58 452c28-53 61-67 102-41 17 11 30 30 40 57H58z" fill="#264438"/>
  <path d="M540 452c18-46 46-65 82-56 28 7 47 25 57 56H540z" fill="#264438"/>
  <g transform="translate(182 158)">
    <rect x="0" y="26" width="150" height="244" rx="18" fill="url(#bagA)"/>
    <rect x="18" width="114" height="48" rx="14" fill="#d9c2a7"/>
    <rect x="42" y="70" width="66" height="66" rx="18" fill="#17352c"/>
    <path d="M76 86c12 0 21 10 21 23s-9 23-21 23-21-10-21-23 9-23 21-23z" fill="#f2e4d3"/>
    <path d="M77 92c-5 6-7 11-7 17 0 5 2 11 7 16" fill="none" stroke="#17352c" stroke-width="4" stroke-linecap="round"/>
    <rect x="28" y="158" width="94" height="12" rx="6" fill="#b98d61"/>
    <rect x="28" y="184" width="72" height="12" rx="6" fill="#c49c75"/>
  </g>
  <g transform="translate(334 128)">
    <rect x="0" y="42" width="170" height="272" rx="20" fill="url(#bagB)"/>
    <rect x="20" width="130" height="64" rx="18" fill="#21473b"/>
    <rect x="38" y="102" width="94" height="94" rx="24" fill="#f0deca"/>
    <circle cx="85" cy="149" r="26" fill="#f4a259"/>
    <path d="M85 128c9 12 13 24 13 35" fill="none" stroke="#17352c" stroke-width="5" stroke-linecap="round"/>
    <rect x="34" y="222" width="102" height="14" rx="7" fill="#99b08f"/>
    <rect x="34" y="250" width="80" height="14" rx="7" fill="#b8cab0"/>
  </g>
  <g transform="translate(516 204)">
    <rect x="0" y="22" width="112" height="190" rx="18" fill="url(#bagC)"/>
    <rect x="14" width="84" height="36" rx="12" fill="#bf6437"/>
    <rect x="25" y="62" width="62" height="62" rx="18" fill="#fff2e1"/>
    <path d="M55 75c10 0 18 9 18 20s-8 20-18 20-18-9-18-20 8-20 18-20z" fill="#17352c"/>
    <path d="M56 82c-4 5-6 9-6 14s2 9 6 14" fill="none" stroke="#f0deca" stroke-width="3.2" stroke-linecap="round"/>
    <rect x="22" y="144" width="66" height="10" rx="5" fill="#f8d6bc"/>
    <rect x="22" y="162" width="46" height="10" rx="5" fill="#f8d6bc"/>
  </g>
  <g transform="translate(80 336)">
    <ellipse cx="88" cy="70" rx="70" ry="22" fill="#314f42" opacity="0.25"/>
    <path d="M36 10h83c20 0 36 16 36 36v34c0 19-15 34-34 34H80c-24 0-44-20-44-44V10z" fill="#f6eee0" stroke="#17352c" stroke-width="8"/>
    <path d="M147 38c17 2 28 12 28 25 0 15-14 27-32 27" fill="none" stroke="#17352c" stroke-width="8" stroke-linecap="round"/>
    <path d="M72 0c13 15 12 30-3 46" fill="none" stroke="#b86b34" stroke-width="5" stroke-linecap="round" opacity="0.8"/>
    <path d="M94 0c13 15 12 30-3 46" fill="none" stroke="#b86b34" stroke-width="5" stroke-linecap="round" opacity="0.8"/>
  </g>
  <g fill="#264438" opacity="0.18">
    <path d="M596 84c19 4 30 14 34 31-18-8-31-18-34-31z"/>
    <path d="M110 120c24 9 42 27 53 54-31-12-49-30-53-54z"/>
    <path d="M632 156c18 3 33 12 44 27-21-4-36-13-44-27z"/>
  </g>
</svg>
