<svg xmlns="http://www.w3.org/2000/svg" viewBox="0 0 420 420" role="img" aria-labelledby="title desc">
  <title id="title">Producto Cumbre 1700</title>
  <desc id="desc">Bolsa ilustrada de cafe Cumbre 1700 con tonos crema y verde oscuro.</desc>
  <defs>
    <linearGradient id="bg" x1="0%" y1="0%" x2="100%" y2="100%">
      <stop offset="0%" stop-color="#f6efe2"/>
      <stop offset="100%" stop-color="#dbc5a8"/>
    </linearGradient>
    <linearGradient id="bag" x1="0%" y1="0%" x2="0%" y2="100%">
      <stop offset="0%" stop-color="#efe1cf"/>
      <stop offset="100%" stop-color="#d5bc9f"/>
    </linearGradient>
  </defs>
  <rect width="420" height="420" rx="44" fill="url(#bg)"/>
  <circle cx="318" cy="92" r="34" fill="#f4a259"/>
  <path d="M0 316c74-64 149-92 224-81 55 9 112 40 171 93v92H0z" fill="#7d9a7f"/>
  <path d="M0 354c89-34 170-37 243-9 44 16 94 42 152 75H0z" fill="#3d5b49"/>
  <ellipse cx="210" cy="340" rx="112" ry="24" fill="#304e42" opacity="0.18"/>
  <g transform="translate(118 48)">
    <rect x="0" y="32" width="184" height="282" rx="22" fill="url(#bag)"/>
    <rect x="24" width="136" height="56" rx="16" fill="#d8c2a7"/>
    <rect x="52" y="86" width="80" height="80" rx="22" fill="#17352c"/>
    <path d="M92 102c14 0 26 12 26 28s-12 28-26 28-26-12-26-28 12-28 26-28z" fill="#f3e4d0"/>
    <path d="M92 108c-7 8-10 15-10 22 0 8 3 15 10 22" fill="none" stroke="#17352c" stroke-width="5" stroke-linecap="round"/>
    <rect x="34" y="192" width="116" height="14" rx="7" fill="#ae8259"/>
    <rect x="34" y="218" width="92" height="14" rx="7" fill="#c0956b"/>
    <rect x="34" y="248" width="132" height="18" rx="9" fill="#17352c" opacity="0.08"/>
  </g>
  <text x="210" y="336" text-anchor="middle" fill="#17352c" font-family="Georgia, serif" font-size="24" font-weight="700">Cumbre 1700</text>
</svg>
