<svg xmlns="http://www.w3.org/2000/svg" viewBox="0 0 420 420" role="img" aria-labelledby="title desc">
  <title id="title">Producto Origen Duo Gift Box</title>
  <desc id="desc">Caja de regalo ilustrada con dos paquetes de cafe y tarjeta de preparacion.</desc>
  <defs>
    <linearGradient id="bg" x1="0%" y1="0%" x2="100%" y2="100%">
      <stop offset="0%" stop-color="#fff1e3"/>
      <stop offset="100%" stop-color="#f3d0b7"/>
    </linearGradient>
    <linearGradient id="tray" x1="0%" y1="0%" x2="0%" y2="100%">
      <stop offset="0%" stop-color="#d57b48"/>
      <stop offset="100%" stop-color="#a45128"/>
    </linearGradient>
  </defs>
  <rect width="420" height="420" rx="44" fill="url(#bg)"/>
  <circle cx="300" cy="82" r="30" fill="#17352c" opacity="0.9"/>
  <path d="M0 306c75-58 151-82 228-73 58 8 117 39 177 94v93H0z" fill="#efb98e"/>
  <path d="M0 354c100-28 190-24 272 13 42 18 87 35 133 53H0z" fill="#bb6d43"/>
  <ellipse cx="210" cy="340" rx="126" ry="24" fill="#7c3d21" opacity="0.16"/>
  <g transform="translate(84 92)">
    <rect x="0" y="92" width="250" height="152" rx="20" fill="url(#tray)"/>
    <rect x="14" y="106" width="222" height="124" rx="14" fill="#f6eadb"/>
    <rect x="28" y="40" width="78" height="156" rx="18" fill="#17352c"/>
    <rect x="40" y="20" width="54" height="40" rx="12" fill="#28493d"/>
    <rect x="144" y="54" width="78" height="142" rx="18" fill="#efe1cf"/>
    <rect x="156" y="34" width="54" height="40" rx="12" fill="#d8c2a7"/>
    <rect x="112" y="112" width="26" height="84" rx="8" fill="#f8f2ea"/>
    <rect x="116" y="124" width="18" height="8" rx="4" fill="#d57b48"/>
    <rect x="116" y="142" width="18" height="8" rx="4" fill="#d57b48"/>
    <rect x="116" y="160" width="18" height="8" rx="4" fill="#d57b48"/>
    <circle cx="67" cy="120" r="20" fill="#f1ddc7"/>
    <path d="M68 105c-5 6-7 11-7 16 0 6 2 11 7 17" fill="none" stroke="#17352c" stroke-width="4" stroke-linecap="round"/>
    <circle cx="183" cy="118" r="20" fill="#17352c"/>
    <path d="M184 103c-5 6-7 11-7 16 0 6 2 11 7 17" fill="none" stroke="#f0deca" stroke-width="4" stroke-linecap="round"/>
  </g>
  <text x="210" y="336" text-anchor="middle" fill="#6b331a" font-family="Georgia, serif" font-size="22" font-weight="700">Origen Duo Gift Box</text>
</svg>
